<svg xmlns="http://www.w3.org/2000/svg" width="36" height="36" fill="none" viewBox="0 0 36 36"><path fill="url(#a)" d="M26.3 16.3h5c1.9 0 3.4-1.5 3.4-3.3V6.3c0-1.8-1.5-3.3-3.4-3.3h-5A3.3 3.3 0 0 0 23 6.3V8H13V6.3C13 4.5 11.5 3 9.7 3h-5a3.3 3.3 0 0 0-3.4 3.3V13c0 1.8 1.5 3.3 3.4 3.3h5c1.8 0 3.3-1.5 3.3-3.3v-1.7h3.3V23a5 5 0 0 0 5 5H23v1.7c0 1.8 1.5 3.3 3.3 3.3h5c1.9 0 3.4-1.5 3.4-3.3V23c0-1.9-1.5-3.3-3.4-3.3h-5A3.3 3.3 0 0 0 23 23v1.7h-1.7q-1.5-.2-1.6-1.7V11.3H23V13c0 1.8 1.5 3.3 3.3 3.3"/><path fill="url(#b)" d="M10.7 22.3 9 18.6a1 1 0 0 0-2 0l-1.7 3.7L1.6 24a1 1 0 0 0 0 2l3.7 1.7L7 31.4a1 1 0 0 0 2 0l1.7-3.7 3.7-1.7a1 1 0 0 0 0-2z"/><defs><linearGradient id="a" x1="35" x2="1" y1="3" y2="33" gradientUnits="userSpaceOnUse"><stop offset=".3" stop-color="#b468e6"/><stop offset=".7" stop-color="#6ecefa"/></linearGradient><linearGradient id="b" x1="35" x2="1" y1="3" y2="33" gradientUnits="userSpaceOnUse"><stop offset=".3" stop-color="#b468e6"/><stop offset=".7" stop-color="#6ecefa"/></linearGradient></defs></svg>